<svg id="Layer_2" data-name="Layer 2" xmlns="http://www.w3.org/2000/svg" viewBox="0 0 314.17 219.79"><defs><style>.cls-1{fill:#e2ddeb;}</style></defs><title>Artboard 1</title><path class="cls-1" d="M6.93,74.29c-.16,3.65.58,6.8,3.06,9.1,1.4,1.29,3,1.88,4.22.24,3.23-4.45,7.66-6.9,11.2-10.81a35.77,35.77,0,0,0,4.3-5.51c.91-1.5,1.66-2.88.85-5-.64-1.66.83-2.63,1.37-3.89.35-.82,1.48-1.39,1.12-2.37-1.18-3.28.8-4.84,2.24-6.43A75.59,75.59,0,0,1,51.94,35.86C59.79,31,68.18,28.42,76.53,25.7,82.18,23.86,88,24.28,93.87,26c8.3,2.37,14.62,8.67,21.36,14.39,4.54,3.87,9.23,7.48,13.58,11.67,7.69,7.42,12.22,17.91,16.84,28.24q6.75,15.06,13.43,30.18c3.92,9,8.17,17.68,11.82,26.85a97.84,97.84,0,0,0,17.57,28.47c4.8,5.45,8.83,11.74,13.32,17.51,6.36,8.18,13.81,13.7,23,15.32,1.94.34,3.76,1.25,5.8,1.28,9.29.12,17.86-3.61,26.51-7.15a46.34,46.34,0,0,0,20.57-16.91c5.15-7.35,9.19-15.74,13.1-24.21,4.75-10.26,9-20.78,11.49-32.27.35-1.57.9-2.87,2.53-2.25s1.57,1.82,1.23,3.53c-4.28,21.87-11.33,41.92-23,59.46-7.41,11.19-16.15,19.79-26.83,25.19-8.57,4.34-17.59,5.51-26.83,4.62a43.24,43.24,0,0,1-16.62-5.32c-7.35-4-13.73-9.71-19.62-16.35a188.48,188.48,0,0,1-22.18-31.73,317,317,0,0,1-24.2-53.17c-4.66-13.39-10.26-26.09-18.17-36.95-8.64-11.86-18.65-21.12-31.19-25.81C89.69,37.67,81.89,36.09,74,37.2,57.31,39.57,42.85,47.94,33,65.49c-5,8.87-11.47,14.86-18.73,20C11.08,87.8,7.62,85.28,6.67,80A10,10,0,0,1,7,74.32ZM243.67,203.72c-18.27.31-16.46,4-42.9-12.94C206.77,200.24,229.25,210.7,243.67,203.72Z"/><path class="cls-1" d="M277.63,150.06,269.5,161a1.47,1.47,0,0,1,.32-2.18c13.23-15.79,20.5-35.63,25.13-57.37,2.32-10.92,3.54-22.12,5.77-33.05.24-1.17.19-2.53,1.23-3.85a9.82,9.82,0,0,1,0,1.64c-2.77,13.19-4.17,26.75-7.11,39.89-.46,2.07-1.07,4.08-1.65,6.1-.34,1.19-.54,2.18.46,3.14s1,2.5.58,3.87c-3.19,11.56-5.29,23.67-9.66,34.63-4.88,12.21-12.28,21.79-21.91,28.58a32.52,32.52,0,0,1-18.24,5.71c-2.5.08-5,.07-7.49.12a41,41,0,0,1-20.78-5.33c-6.63-3.65-12-9.45-17.26-15.59A198.48,198.48,0,0,1,181,141.92a123.48,123.48,0,0,1-8.23-15.15c-1-2.29-3.44-3.52-3.17-6.75,0-.15-.21-.48-.3-.48-3.12.27-3-1.93-2.28-4.6,0-.15-.36-.68-.43-.64-2.59,1.36-2.53-1.78-3.18-3.17-3.63-7.88-5.3-16.8-8.35-25-4.43-11.87-8.23-24.22-15-34.39-4.12-6.16-9.27-11.14-14.16-16.38A59.26,59.26,0,0,0,107.48,22c-2.88-1.34-5.71-3.45-9.37-2-1.94.76-4.56-1.24-7-1.48-7.58-.75-15.15-.29-22.71.25a50.71,50.71,0,0,0-12.66,2.68,44.77,44.77,0,0,0-13.14,7.15A76,76,0,0,0,26.87,45c-.73,1-1.66,1.77-2.67.59-.87-1-.46-2.19.17-3.18a70.58,70.58,0,0,1,9.45-11.32,76.87,76.87,0,0,1,18.41-14,35.48,35.48,0,0,1,12.36-4.24c8.1-1.06,16.12-3.37,24.33-2.5a50.47,50.47,0,0,1,24.74,9.11c13.79,9.93,23.86,24.74,33.55,40a179.18,179.18,0,0,1,18.37,38.7c2.08,6.13,5.37,11.54,7.27,17.82.26.84.66,2.4,2.07,1.6.73-.42,1,.41.72,1-.91,2,.2,3.26.93,4.65,6.83,12.91,13.69,25.83,21.61,37.7,6.26,9.39,14.18,16.27,23.84,20,8.88,3.45,17.68,3,26.5,1,6.54-1.44,11.53-6.83,16.56-11.88s8.5-12.29,12.54-18.66a4.92,4.92,0,0,0,.32-1.12Z"/><path class="cls-1" d="M7,74.32c1.82-10.88,4.2-21.45,10.41-29.94,1.94-2.66,3.81-5.4,5.71-8.11l.57.59c-1.79,2.7-3.55,5.43-5.39,8.08-3.46,5-5.53,10.81-6.94,17.06-1,4.38-3,8.18-4.38,12.29Z"/></svg>