<svg id="Layer_2" data-name="Layer 2" xmlns="http://www.w3.org/2000/svg" viewBox="0 0 314.17 219.79"><defs><style>.cls-1{fill:none;}.cls-2{fill:#e2ddeb;}.cls-3{fill:#fff;}</style></defs><title>Artboard 1</title><path class="cls-1" d="M23.08,36.31s0,0,0,0"/><path class="cls-2" d="M6.93,74.29v.12l0-.09Zm298.83,43.52a2.09,2.09,0,0,0-1-.73c-1.63-.61-2.18.68-2.52,2.25-2.53,11.49-6.75,22-11.49,32.27-3.92,8.47-8,16.86-13.11,24.21a46.34,46.34,0,0,1-20.57,16.91c-8.65,3.54-17.21,7.27-26.51,7.15-2,0-3.86-.94-5.8-1.28-9.14-1.62-16.59-7.14-23-15.32-4.49-5.77-8.51-12.06-13.32-17.51a97.84,97.84,0,0,1-17.57-28.47c-3.65-9.17-7.9-17.89-11.82-26.85-4.43-10.09-8.93-20.14-13.42-30.18C141,69.93,136.51,59.44,128.81,52c-4.35-4.19-9-7.8-13.58-11.67-6.74-5.72-13.06-12-21.35-14.39-5.89-1.68-11.69-2.1-17.35-.26C68.19,28.42,59.79,31,51.94,35.86A75.59,75.59,0,0,0,35.29,49.65c-1.44,1.59-3.42,3.15-2.23,6.43.35,1-.77,1.55-1.13,2.37-.54,1.26-2,2.23-1.36,3.9.81,2.09.05,3.46-.86,5a35.77,35.77,0,0,1-4.3,5.51c-3.54,3.91-8,6.36-11.2,10.81C13,85.27,11.39,84.68,10,83.39c-2.45-2.26-3.2-5.38-3.06-9A10,10,0,0,0,6.68,80c1,5.28,4.4,7.8,7.58,5.53C21.52,80.35,28,74.36,33,65.49,42.85,47.94,57.31,39.57,74,37.2c7.87-1.11,15.67.47,23.35,3.35,12.54,4.69,22.56,14,31.19,25.81,7.91,10.86,13.51,23.56,18.17,37a316.28,316.28,0,0,0,24.21,53.17,188.44,188.44,0,0,0,22.17,31.73c5.89,6.64,12.27,12.38,19.62,16.35a43.24,43.24,0,0,0,16.62,5.32c9.24.89,18.26-.28,26.83-4.62,10.69-5.4,19.42-14,26.83-25.19,11.63-17.54,18.68-37.59,23-59.46A3.53,3.53,0,0,0,305.76,117.81Z"/><path class="cls-3" d="M243.67,203.72c-14.41,7-36.9-3.48-42.9-12.94C227.22,207.72,225.4,204,243.67,203.72Z"/><path class="cls-2" d="M302,66.18c-2.77,13.18-4.17,26.75-7.11,39.88-.46,2.07-1.06,4.08-1.65,6.1-.34,1.19-.53,2.18.46,3.14s1,2.5.58,3.87c-3.19,11.56-5.28,23.67-9.66,34.63-4.88,12.21-12.28,21.79-21.91,28.58a32.52,32.52,0,0,1-18.24,5.71c-2.49.08-5,.07-7.49.12a41,41,0,0,1-20.78-5.33c-6.63-3.65-12-9.45-17.26-15.59A198.48,198.48,0,0,1,181,141.92a123.48,123.48,0,0,1-8.23-15.15c-1-2.29-3.44-3.52-3.17-6.75,0-.15-.2-.48-.3-.48-3.12.27-3-1.93-2.28-4.6,0-.15-.36-.68-.43-.64-2.59,1.36-2.53-1.78-3.17-3.17-3.64-7.88-5.3-16.8-8.36-25-4.43-11.87-8.23-24.22-15-34.39-4.12-6.16-9.27-11.14-14.16-16.38A59.26,59.26,0,0,0,107.48,22c-2.87-1.34-5.71-3.45-9.37-2-1.93.76-4.56-1.24-7-1.48-7.58-.75-15.15-.29-22.71.25a50.81,50.81,0,0,0-12.66,2.68,44.77,44.77,0,0,0-13.14,7.15A76,76,0,0,0,26.87,45c-.73,1-1.66,1.77-2.67.59-.87-1-.46-2.19.17-3.17a70.66,70.66,0,0,1,9.45-11.33,76.87,76.87,0,0,1,18.41-14,35.55,35.55,0,0,1,12.36-4.24c8.1-1.06,16.12-3.37,24.33-2.5a50.47,50.47,0,0,1,24.74,9.11c13.79,9.94,23.86,24.74,33.55,40a179.18,179.18,0,0,1,18.37,38.7c2.08,6.13,5.37,11.54,7.27,17.82.26.84.66,2.41,2.07,1.6.73-.42,1,.41.72,1-.91,2,.2,3.26.94,4.65,6.82,12.91,13.69,25.83,21.6,37.7,6.27,9.39,14.19,16.27,23.84,20,8.88,3.45,17.68,3,26.5,1,6.54-1.44,11.53-6.83,16.56-11.88s8.5-12.29,12.54-18.66a4.08,4.08,0,0,0,.32-1.12l-.31-.29L269.51,161a1.47,1.47,0,0,1,.31-2.18c13.24-15.79,20.5-35.63,25.13-57.36,2.33-10.93,3.54-22.13,5.77-33.06.24-1.17.19-2.53,1.23-3.85A10,10,0,0,1,302,66.18Z"/><path class="cls-2" d="M7,74.11a1.55,1.55,0,0,0,0,.21l0,0A1.34,1.34,0,0,1,7,74.11Z"/><path class="cls-2" d="M23.08,36.31a57.05,57.05,0,0,1-4.83,8.63c-3.46,5-5.53,10.81-6.94,17.06-1,4.32-2.88,8.07-4.31,12.11C8.8,63.3,11.19,52.82,17.36,44.38c1.94-2.66,3.81-5.4,5.71-8.11C23.08,36.28,23.08,36.29,23.08,36.31Z"/><path class="cls-3" d="M305.76,117.81a2.09,2.09,0,0,0-1-.73c-1.63-.61-2.18.68-2.52,2.25-2.53,11.49-6.75,22-11.49,32.27-3.92,8.47-8,16.86-13.11,24.21a46.34,46.34,0,0,1-20.57,16.91c-8.65,3.54-17.21,7.27-26.51,7.15-2,0-3.86-.94-5.8-1.28-9.14-1.62-16.59-7.14-23-15.32-4.49-5.77-8.51-12.06-13.32-17.51a97.84,97.84,0,0,1-17.57-28.47c-3.65-9.17-7.9-17.89-11.82-26.85-4.43-10.09-8.93-20.14-13.42-30.18C141,69.93,136.51,59.44,128.81,52c-4.35-4.19-9-7.8-13.58-11.67-6.74-5.72-13.06-12-21.35-14.39-5.89-1.68-11.69-2.1-17.35-.26C68.19,28.42,59.79,31,51.94,35.86A75.59,75.59,0,0,0,35.29,49.65c-1.44,1.59-3.42,3.15-2.23,6.43.35,1-.77,1.55-1.13,2.37-.54,1.26-2,2.23-1.36,3.9.81,2.09.05,3.46-.86,5a35.77,35.77,0,0,1-4.3,5.51c-3.54,3.91-8,6.36-11.2,10.81C13,85.27,11.39,84.68,10,83.39c-2.45-2.26-3.2-5.38-3.06-9l0-.09a1.55,1.55,0,0,1,0-.21c1.43-4,3.34-7.79,4.31-12.11,1.41-6.25,3.48-12.09,6.94-17.06a57.05,57.05,0,0,0,4.83-8.63l1.29,6.07c-.63,1-1,2.14-.17,3.17,1,1.18,1.94.44,2.67-.59A76,76,0,0,1,42.63,28.61a44.77,44.77,0,0,1,13.14-7.15,50.81,50.81,0,0,1,12.66-2.68c7.56-.54,15.13-1,22.71-.25,2.41.24,5,2.24,7,1.48,3.66-1.45,6.5.66,9.37,2a59.26,59.26,0,0,1,18.41,13.36c4.89,5.24,10,10.22,14.16,16.38,6.79,10.17,10.59,22.52,15,34.39,3.06,8.19,4.72,17.11,8.36,25,.64,1.39.58,4.53,3.17,3.17.07,0,.47.49.43.64-.69,2.67-.84,4.87,2.28,4.6.1,0,.31.33.3.48-.27,3.23,2.18,4.46,3.17,6.75A123.48,123.48,0,0,0,181,141.92a198.48,198.48,0,0,0,17.89,25.37c5.22,6.14,10.63,11.94,17.26,15.59a41,41,0,0,0,20.78,5.33c2.5-.05,5,0,7.49-.12a32.52,32.52,0,0,0,18.24-5.71c9.63-6.79,17-16.37,21.91-28.58,4.38-11,6.47-23.07,9.66-34.63.38-1.37.44-2.88-.58-3.87s-.8-2-.46-3.14c.59-2,1.19-4,1.65-6.1,2.94-13.13,4.34-26.7,7.11-39.88Z"/><line class="cls-1" x1="305.97" y1="120.61" x2="305.76" y2="117.81"/></svg>